# xmcd
#
# Track frame offsets: 
#        150
#        12181
#        23723
#        35314
#        47990
#        61244
#        73601
#        85923
#        95301
#        108954
#        121874
#        135201
#        148165
#        160033
#        170077
#        180647
#        191578
#
# Disc length: 2736 seconds
#
# Revision: 1
# Processed by: cddbd v1.5.2PL0 Copyright (c) Steve Scherf et al.
# Submitted via: ExactAudioCopyFreeDBPlugin 1.0
#
DISCID=da0aae11
DTITLE=Big Mama Thornton - Big Mama Thornton:  The Complete, 1950-1961
DYEAR=2013
DGENRE=Blues
TTITLE0=Prtnership Blues
TTITLE1=Mischievous Boogie
TTITLE2=I'm All Fed Up
TTITLE3=Cotton Picking Blues
TTITLE4=Everytime I Think of You
TTITLE5=No Jody for Me
TTITLE6=Let Your Tears Fall Baby
TTITLE7=They Call Me Big Mama
TTITLE8=Walking Blues
TTITLE9=Hound Dog
TTITLE10=Just Can't Help Myself
TTITLE11=Nightmare
TTITLE12=Rockabye Baby
TTITLE13=Hard Times
TTITLE14=I've Searched the World Over
TTITLE15=All Right Baby
TTITLE16=Bad Luck Got My Man
EXTD=
EXTT0=
EXTT1=
EXTT2=
EXTT3=
EXTT4=
EXTT5=
EXTT6=
EXTT7=
EXTT8=
EXTT9=
EXTT10=
EXTT11=
EXTT12=
EXTT13=
EXTT14=
EXTT15=
EXTT16=
PLAYORDER=
